<svg id="svg" version="1.1" xmlns="http://www.w3.org/2000/svg" xmlns:xlink="http://www.w3.org/1999/xlink" width="400" height="400" viewBox="0, 0, 400,400"><g id="svgg"><path id="path0" d="M191.538 10.411 C 92.363 15.976,15.708 92.187,10.517 190.385 C 5.046 293.861,84.345 382.644,188.140 389.250 C 286.542 395.513,373.793 324.579,387.672 227.032 C 389.378 215.041,390.033 194.396,389.030 184.231 C 379.668 89.335,308.326 18.588,214.103 10.760 C 210.857 10.491,194.602 10.239,191.538 10.411 M198.921 20.733 C 203.664 22.209,206.257 28.392,204.773 34.685 C 203.364 40.661,200.474 42.302,191.346 42.306 L 187.179 42.308 187.161 41.474 C 186.913 30.508,186.766 20.598,186.848 20.449 C 187.096 19.997,197.330 20.238,198.921 20.733 M226.891 22.192 L 227.757 22.343 227.595 23.523 C 227.506 24.172,227.381 24.756,227.316 24.821 C 227.251 24.886,224.396 24.588,220.971 24.158 C 217.546 23.729,214.713 23.408,214.676 23.444 C 214.558 23.561,213.792 29.776,213.886 29.856 C 213.934 29.898,216.626 30.265,219.868 30.671 L 225.761 31.410 225.681 32.564 C 225.570 34.156,225.893 34.116,219.493 33.316 C 216.323 32.920,213.669 32.655,213.595 32.728 C 213.367 32.953,212.593 39.606,212.776 39.769 C 212.871 39.854,215.603 40.235,218.846 40.616 C 226.700 41.538,225.962 41.309,225.751 42.765 C 225.654 43.430,225.544 44.011,225.506 44.055 C 225.392 44.188,209.629 42.248,209.453 42.079 C 209.332 41.962,211.879 20.450,212.024 20.369 C 212.086 20.335,226.092 22.052,226.891 22.192 M178.764 32.456 C 182.103 37.945,184.755 42.519,184.656 42.621 C 184.557 42.722,183.797 42.838,182.966 42.877 L 181.455 42.949 179.781 40.064 C 178.505 37.864,177.982 37.179,177.579 37.180 C 177.138 37.180,172.882 37.816,169.830 38.338 L 169.020 38.476 168.442 41.663 C 168.124 43.416,167.788 44.974,167.694 45.126 C 167.546 45.365,164.858 45.952,164.678 45.784 C 164.627 45.737,168.788 25.839,169.356 23.417 C 169.478 22.898,171.524 22.238,172.436 22.424 C 172.577 22.453,175.425 26.967,178.764 32.456 M189.833 25.424 C 189.925 26.715,190.000 30.407,190.000 33.629 L 190.000 39.487 193.287 39.487 C 200.069 39.487,201.910 37.737,201.917 31.282 C 201.924 24.757,200.213 23.077,193.560 23.077 L 189.667 23.077 189.833 25.424 M171.281 26.410 C 171.264 27.045,170.870 29.410,170.405 31.667 C 169.941 33.923,169.576 35.792,169.595 35.819 C 169.633 35.874,176.501 34.828,176.600 34.752 C 176.658 34.708,172.114 26.491,171.562 25.641 C 171.378 25.358,171.304 25.562,171.281 26.410 M253.697 27.997 C 257.228 29.159,259.744 32.310,259.744 35.571 L 259.744 36.436 258.271 36.359 L 256.799 36.282 256.630 35.092 C 255.823 29.419,248.018 27.949,244.828 32.870 C 240.346 39.785,242.590 47.167,249.177 47.177 C 251.210 47.180,252.411 46.596,253.881 44.890 L 254.976 43.619 256.206 44.309 C 257.661 45.127,257.639 45.027,256.656 46.385 C 251.243 53.857,239.590 49.404,239.627 39.877 C 239.663 30.756,245.950 25.447,253.697 27.997 M153.720 27.972 C 161.368 30.833,162.949 44.563,156.033 48.062 C 154.800 48.686,145.882 51.594,145.707 51.430 C 145.349 51.092,139.367 30.607,139.589 30.479 C 139.948 30.274,147.263 28.039,148.607 27.724 C 150.347 27.316,152.209 27.406,153.720 27.972 M148.205 30.610 C 144.610 31.606,143.077 32.158,143.077 32.459 C 143.077 32.642,143.776 35.078,144.631 37.871 C 145.485 40.664,146.529 44.074,146.949 45.449 C 147.370 46.824,147.845 47.949,148.005 47.949 C 148.876 47.949,154.159 46.058,155.182 45.381 C 157.364 43.936,158.030 40.956,157.032 37.107 C 155.624 31.672,152.548 29.408,148.205 30.610 M273.874 36.159 C 280.234 37.365,284.026 43.102,282.472 49.167 C 280.135 58.291,270.955 61.650,264.418 55.773 C 256.901 49.015,264.002 34.287,273.874 36.159 M126.861 47.577 C 129.434 52.872,131.538 57.316,131.538 57.452 C 131.538 57.851,129.264 58.855,128.991 58.577 C 128.662 58.243,119.406 39.224,119.522 39.121 C 119.771 38.901,121.699 37.970,121.925 37.960 C 122.067 37.954,124.289 42.281,126.861 47.577 M270.014 39.145 C 265.669 40.739,262.790 48.329,265.022 52.308 C 269.193 59.746,279.789 55.157,279.789 45.913 C 279.789 40.915,274.733 37.415,270.014 39.145 M118.747 51.445 C 121.763 56.471,124.267 60.676,124.312 60.791 C 124.396 61.006,122.490 62.308,122.091 62.308 C 121.967 62.308,119.863 58.967,117.416 54.884 C 114.970 50.800,112.933 47.494,112.890 47.537 C 112.831 47.597,115.979 62.939,116.515 65.203 C 116.619 65.639,115.023 66.923,114.378 66.923 C 114.242 66.923,111.093 64.356,107.380 61.218 C 99.877 54.878,99.581 54.636,99.796 55.000 C 99.879 55.141,101.975 58.633,104.453 62.761 L 108.959 70.265 107.749 71.018 C 107.084 71.432,106.470 71.690,106.383 71.590 C 105.693 70.794,95.386 53.187,95.475 52.955 C 95.587 52.662,98.581 50.769,98.929 50.770 C 99.024 50.770,102.391 53.583,106.410 57.019 C 110.429 60.456,113.737 63.254,113.760 63.237 C 113.783 63.219,112.890 58.944,111.775 53.737 C 110.661 48.529,109.804 44.214,109.870 44.147 C 110.183 43.834,112.725 42.346,112.978 42.328 C 113.135 42.317,115.731 46.420,118.747 51.445 M139.605 45.520 C 139.852 46.168,140.013 46.732,139.963 46.775 C 139.378 47.268,132.422 49.928,132.287 49.711 C 132.006 49.255,131.447 47.440,131.561 47.352 C 131.898 47.091,138.873 44.194,139.000 44.261 C 139.085 44.306,139.357 44.872,139.605 45.520 M293.485 45.913 C 294.192 46.400,294.557 46.814,294.444 47.003 C 294.343 47.171,292.651 49.788,290.682 52.821 C 284.535 62.288,284.420 64.286,289.872 66.832 C 293.472 68.513,294.438 67.767,300.277 58.798 L 304.147 52.852 305.408 53.628 C 306.178 54.102,306.601 54.520,306.494 54.702 C 304.884 57.448,298.574 66.807,297.655 67.813 C 294.386 71.390,289.419 70.990,285.234 66.814 C 282.624 64.211,282.206 61.752,283.797 58.363 C 284.494 56.877,291.977 45.128,292.226 45.128 C 292.291 45.128,292.857 45.482,293.485 45.913 M210.641 49.001 C 280.461 53.411,339.291 107.731,349.601 177.308 C 364.923 280.712,273.981 368.061,171.293 348.568 C 113.683 337.633,66.676 292.933,52.941 236.026 C 28.793 135.976,107.618 42.494,210.641 49.001 M314.010 59.947 L 315.070 60.897 313.972 70.897 C 313.368 76.397,312.904 80.930,312.941 80.970 C 312.978 81.010,315.406 78.183,318.336 74.688 C 321.267 71.193,323.744 68.333,323.841 68.333 C 324.498 68.333,325.920 70.050,325.599 70.456 C 323.459 73.160,311.976 86.667,311.817 86.667 C 311.700 86.667,311.134 86.234,310.560 85.705 L 309.515 84.744 310.628 74.744 C 311.240 69.244,311.719 64.719,311.691 64.688 C 311.664 64.658,309.229 67.514,306.280 71.034 C 303.331 74.555,300.856 77.434,300.780 77.432 C 300.703 77.430,300.184 77.041,299.624 76.568 L 298.608 75.708 303.849 69.457 C 312.015 59.717,312.650 58.974,312.804 58.985 C 312.884 58.991,313.426 59.424,314.010 59.947 M94.391 67.050 C 99.943 70.222,104.510 72.905,104.539 73.012 C 104.568 73.118,104.029 73.640,103.340 74.171 L 102.088 75.137 99.109 73.337 C 97.471 72.348,96.069 71.538,95.994 71.538 C 95.655 71.538,88.974 76.998,88.974 77.276 C 88.974 77.448,89.433 78.954,89.994 80.623 C 90.555 82.292,90.968 83.732,90.913 83.822 C 90.857 83.912,90.292 84.359,89.656 84.815 L 88.501 85.644 88.139 84.425 C 87.940 83.754,86.407 78.717,84.731 73.231 L 81.685 63.258 82.830 62.271 C 83.459 61.728,84.047 61.283,84.135 61.283 C 84.223 61.282,88.839 63.878,94.391 67.050 M84.745 64.744 C 84.865 65.026,85.647 67.310,86.484 69.820 C 87.321 72.329,88.106 74.349,88.228 74.307 C 89.219 73.969,93.587 70.148,93.288 69.881 C 93.102 69.714,91.276 68.559,89.231 67.315 C 87.186 66.072,85.291 64.869,85.021 64.642 C 84.559 64.256,84.542 64.262,84.745 64.744 M78.119 78.397 C 81.634 82.170,85.003 85.796,85.604 86.456 L 86.699 87.656 85.721 88.565 C 85.183 89.064,84.666 89.476,84.571 89.480 C 84.428 89.486,71.770 76.033,70.147 74.150 L 69.652 73.577 70.647 72.558 C 71.195 71.997,71.662 71.538,71.685 71.538 C 71.709 71.538,74.604 74.625,78.119 78.397 M340.375 84.304 L 342.153 86.172 341.216 87.109 L 340.279 88.046 337.755 85.387 L 335.232 82.728 328.321 89.422 L 321.410 96.117 320.336 95.071 L 319.261 94.026 323.797 89.648 C 326.292 87.240,329.407 84.225,330.720 82.949 L 333.107 80.629 330.610 77.982 L 328.112 75.334 329.112 74.495 L 330.111 73.656 334.354 78.046 C 336.687 80.460,339.397 83.277,340.375 84.304 M72.582 85.629 C 76.956 89.571,80.514 92.888,80.489 93.000 C 80.464 93.113,80.075 93.635,79.625 94.161 L 78.807 95.117 72.290 89.245 C 68.705 86.015,65.743 83.403,65.706 83.439 C 65.647 83.498,72.459 95.987,74.004 98.653 L 74.636 99.742 73.664 100.753 L 72.692 101.765 64.127 98.058 C 59.417 96.020,55.526 94.389,55.481 94.434 C 55.436 94.479,58.338 97.154,61.930 100.379 C 65.522 103.603,68.457 106.308,68.452 106.390 C 68.447 106.472,68.053 106.993,67.577 107.549 L 66.712 108.560 64.315 106.396 C 62.996 105.205,59.351 101.925,56.215 99.107 C 53.079 96.289,50.513 93.910,50.513 93.821 C 50.513 93.732,51.176 92.957,51.987 92.098 L 53.462 90.536 62.167 94.361 C 66.955 96.465,70.913 98.147,70.961 98.099 C 71.010 98.050,68.956 94.244,66.396 89.640 L 61.744 81.269 62.943 79.865 C 63.603 79.093,64.252 78.462,64.386 78.462 C 64.520 78.462,68.208 81.687,72.582 85.629 M345.897 91.019 C 345.896 91.364,342.930 100.653,342.425 101.888 C 342.246 102.329,342.330 102.353,343.487 102.198 C 344.178 102.106,346.878 101.811,349.487 101.543 L 354.231 101.056 354.821 101.746 C 355.145 102.125,355.632 102.738,355.903 103.106 L 356.396 103.777 354.800 103.930 C 353.923 104.014,350.494 104.279,347.179 104.519 L 341.154 104.955 337.564 107.868 L 333.974 110.781 333.028 109.701 C 331.881 108.392,331.620 108.802,335.710 105.500 C 339.759 102.232,338.976 103.614,341.567 95.169 L 343.718 88.160 344.808 89.393 C 345.407 90.072,345.897 90.803,345.897 91.019 M47.792 122.920 C 50.403 124.011,51.061 127.127,49.094 129.094 C 45.708 132.480,40.443 127.737,43.523 124.076 C 44.706 122.671,46.216 122.262,47.792 122.920 M355.066 125.896 C 357.948 127.653,357.315 131.888,354.038 132.775 C 350.758 133.664,348.009 129.859,349.874 127.012 C 350.909 125.433,353.421 124.893,355.066 125.896 M250.256 160.515 C 223.819 163.240,205.539 180.039,194.761 211.514 C 193.332 215.688,193.318 215.666,195.743 213.003 C 211.143 196.085,233.892 183.722,256.667 179.893 C 281.861 175.658,312.232 180.252,337.115 192.062 C 338.843 192.882,340.256 193.515,340.256 193.467 C 340.256 193.162,330.602 186.636,325.769 183.674 C 298.424 166.914,270.693 158.409,250.256 160.515 M265.513 190.020 C 236.942 191.058,213.295 199.150,195.795 213.878 C 193.215 216.050,192.960 216.204,192.462 215.886 C 162.737 196.939,119.928 190.938,71.923 198.989 C 63.271 200.440,62.914 200.384,80.927 200.390 C 126.189 200.405,164.932 206.325,189.944 217.049 L 193.094 218.400 199.175 216.397 C 248.081 200.296,299.192 193.643,332.051 199.100 C 334.096 199.440,336.173 199.783,336.667 199.863 C 338.389 200.143,330.858 197.943,325.769 196.681 C 309.769 192.711,294.420 190.553,278.205 189.996 C 274.327 189.862,271.096 189.769,271.026 189.789 C 270.955 189.809,268.474 189.913,265.513 190.020 M54.160 206.378 C 54.232 207.393,54.361 208.293,54.445 208.377 C 54.530 208.461,65.593 209.726,79.030 211.188 C 92.467 212.650,123.576 216.046,148.161 218.736 L 192.860 223.627 243.417 218.098 C 271.224 215.057,305.224 211.356,318.974 209.874 C 349.219 206.614,345.641 207.166,345.641 205.758 L 345.641 204.615 331.731 204.616 C 268.203 204.619,216.129 210.652,195.378 220.413 L 192.818 221.617 190.014 220.286 C 171.147 211.327,124.891 205.504,66.180 204.698 L 54.028 204.532 54.160 206.378 M88.524 309.190 C 91.765 313.489,90.597 318.484,85.774 320.953 C 82.116 322.826,79.389 321.840,74.081 316.725 L 70.695 313.464 67.001 317.293 L 63.308 321.122 62.047 319.856 L 60.786 318.590 69.899 309.165 L 79.011 299.740 83.317 303.868 C 85.686 306.139,88.028 308.534,88.524 309.190 M76.183 307.791 C 74.440 309.538,73.058 311.088,73.110 311.235 C 73.314 311.807,79.243 317.175,80.224 317.676 C 83.583 319.389,87.737 316.059,86.681 312.500 C 86.395 311.536,80.088 304.615,79.496 304.615 C 79.416 304.615,77.926 306.045,76.183 307.791 M325.040 304.997 C 326.435 305.412,328.462 306.737,328.462 307.235 C 328.462 307.406,327.988 308.028,327.408 308.618 L 326.355 309.691 325.450 309.077 C 320.572 305.766,312.301 313.249,316.542 317.136 C 317.963 318.439,319.096 318.247,323.591 315.942 C 330.751 312.270,333.958 312.140,336.754 315.407 C 343.518 323.309,328.161 336.556,320.956 329.035 L 320.263 328.312 321.374 327.049 L 322.486 325.786 323.288 326.461 C 327.935 330.371,337.702 323.326,334.626 318.282 C 333.230 315.992,331.392 316.132,325.610 318.969 C 318.335 322.539,315.077 322.260,312.762 317.870 C 309.680 312.027,318.295 302.994,325.040 304.997 M97.538 317.210 C 97.665 317.320,96.671 318.771,95.331 320.436 C 93.990 322.100,91.541 325.135,89.888 327.179 C 83.965 334.506,83.893 337.450,89.554 340.851 C 93.645 343.310,94.947 342.522,102.805 332.834 C 105.785 329.160,108.287 326.154,108.366 326.154 C 108.575 326.154,111.002 328.050,111.015 328.224 C 111.054 328.756,99.537 342.419,98.205 343.421 C 93.749 346.771,87.806 345.403,83.809 340.109 C 80.006 335.072,80.721 332.826,89.635 321.805 L 95.000 315.173 96.154 316.092 C 96.788 316.597,97.411 317.100,97.538 317.210 M303.848 331.795 C 307.399 336.519,310.518 340.607,310.781 340.878 C 311.250 341.364,311.344 341.308,316.252 337.609 C 318.999 335.540,321.341 333.849,321.457 333.852 C 321.679 333.857,323.205 335.905,323.205 336.198 C 323.205 336.379,310.216 346.214,310.134 346.095 C 310.107 346.057,306.547 341.329,302.222 335.589 L 294.358 325.152 295.705 324.119 C 296.445 323.551,297.128 323.113,297.222 323.145 C 297.316 323.178,300.298 327.071,303.848 331.795 M118.011 332.470 C 120.162 333.820,122.479 335.346,123.158 335.860 C 128.199 339.676,126.992 346.565,121.070 347.773 L 119.553 348.082 120.148 348.951 C 123.398 353.694,118.282 360.584,112.518 359.225 C 110.534 358.757,101.246 353.546,99.550 351.949 C 99.275 351.690,106.179 340.217,112.720 330.060 C 113.168 329.365,112.777 329.187,118.011 332.470 M291.070 330.546 C 299.227 332.296,304.726 342.951,301.178 350.131 C 295.563 361.491,280.261 358.949,276.528 346.036 C 274.015 337.344,282.186 328.641,291.070 330.546 M285.666 333.961 C 279.180 336.070,277.692 342.907,282.271 349.562 C 288.847 359.120,302.213 352.329,297.969 341.586 C 295.623 335.649,290.410 332.418,285.666 333.961 M113.647 335.331 C 113.231 336.006,112.309 337.488,111.598 338.623 L 110.304 340.688 113.678 342.751 C 119.045 346.035,121.148 346.072,122.471 342.905 C 123.561 340.296,122.772 339.235,117.102 335.679 C 114.108 333.801,114.560 333.847,113.647 335.331 M133.406 341.441 C 134.142 341.811,134.781 342.146,134.827 342.187 C 134.873 342.228,132.650 346.904,129.887 352.579 C 127.124 358.254,124.899 362.934,124.944 362.978 C 124.988 363.023,127.558 364.293,130.653 365.801 C 133.749 367.310,136.319 368.571,136.363 368.605 C 136.408 368.639,136.119 369.306,135.722 370.087 L 135.000 371.507 127.692 367.942 C 123.673 365.981,120.385 364.272,120.385 364.144 C 120.385 363.707,131.640 340.769,131.855 340.769 C 131.972 340.769,132.670 341.072,133.406 341.441 M267.487 343.104 C 277.055 345.099,281.790 358.711,275.363 365.744 C 267.373 374.487,254.365 369.382,252.584 356.803 C 251.426 348.628,259.294 341.395,267.487 343.104 M107.498 345.192 C 106.943 346.074,105.901 347.735,105.182 348.884 L 103.875 350.974 107.738 353.353 C 112.973 356.577,114.968 356.739,116.804 354.090 C 118.896 351.070,117.817 349.182,111.848 345.416 C 108.364 343.218,108.730 343.237,107.498 345.192 M261.699 346.653 C 255.958 348.953,254.464 354.251,257.680 360.897 C 262.764 371.405,277.322 366.857,274.516 355.637 C 272.746 348.559,266.998 344.530,261.699 346.653 M150.567 349.252 C 151.313 349.546,151.957 349.821,151.999 349.863 C 152.074 349.937,142.854 374.143,142.683 374.322 C 142.537 374.474,139.487 373.222,139.487 373.011 C 139.487 372.902,141.443 367.709,143.833 361.471 C 146.223 355.232,148.297 349.811,148.442 349.423 C 148.758 348.577,148.839 348.571,150.567 349.252 M251.316 362.449 C 255.484 376.904,255.229 375.201,253.301 375.737 C 251.360 376.277,251.763 376.918,249.848 370.233 C 248.952 367.103,248.177 364.502,248.126 364.451 C 248.054 364.379,235.435 367.913,235.196 368.072 C 235.163 368.094,235.889 370.743,236.810 373.959 C 237.731 377.175,238.434 379.857,238.372 379.918 C 238.311 379.980,237.557 380.243,236.698 380.503 L 235.135 380.976 234.634 379.270 C 231.717 369.340,227.959 355.996,228.024 355.799 C 228.070 355.663,228.819 355.350,229.688 355.105 L 231.270 354.659 231.496 355.471 C 233.249 361.772,234.225 364.872,234.455 364.872 C 234.911 364.872,246.776 361.475,247.000 361.280 C 247.113 361.182,246.554 358.826,245.759 356.045 C 244.963 353.263,244.351 350.957,244.399 350.919 C 244.602 350.760,247.327 350.048,247.539 350.099 C 247.666 350.129,249.366 355.687,251.316 362.449 M165.779 353.726 C 170.435 354.921,173.409 358.116,173.997 362.555 L 174.172 363.871 172.422 363.795 L 170.672 363.718 170.463 362.821 C 169.926 360.521,169.639 359.875,168.694 358.850 C 166.484 356.452,162.334 355.696,159.377 357.152 C 153.909 359.843,151.601 370.210,155.502 374.550 C 159.153 378.610,166.306 377.918,168.210 373.321 C 168.600 372.379,168.720 372.381,170.418 373.352 C 172.012 374.265,172.002 374.233,171.128 375.541 C 168.142 380.010,163.396 381.523,157.887 379.764 C 152.572 378.066,150.152 374.447,150.156 368.205 C 150.164 357.900,157.079 351.492,165.779 353.726 M221.504 357.405 C 223.573 358.049,225.391 359.432,226.654 361.324 C 227.956 363.274,227.977 363.161,226.192 363.812 C 224.276 364.510,224.226 364.506,223.850 363.600 C 221.713 358.439,212.911 359.036,210.234 364.524 C 208.997 367.060,209.314 372.952,210.868 376.299 C 214.139 383.344,224.300 382.355,225.726 374.853 L 226.024 373.287 227.691 373.465 C 229.841 373.693,229.757 373.593,229.329 375.429 C 226.928 385.721,213.153 387.504,207.880 378.205 C 201.469 366.899,210.027 353.833,221.504 357.405 M197.123 358.336 C 200.946 359.237,203.288 361.574,203.751 364.948 L 203.908 366.096 202.307 366.282 C 200.622 366.478,200.269 366.310,200.260 365.310 C 200.223 360.969,190.648 359.354,188.586 363.341 C 187.120 366.176,188.500 367.472,194.982 369.350 C 201.940 371.365,204.159 373.239,204.210 377.145 C 204.350 387.813,184.681 387.882,183.418 377.217 C 183.251 375.809,183.465 375.651,185.548 375.645 C 186.570 375.641,186.616 375.676,186.788 376.591 C 188.057 383.354,201.461 384.005,200.701 377.267 C 200.465 375.168,199.016 374.216,193.781 372.722 C 187.271 370.862,185.184 369.272,184.709 365.809 C 183.972 360.431,190.174 356.698,197.123 358.336 " stroke="none" fill="#23408f" fill-rule="evenodd"></path><path id="path1" d="M188.462 0.172 C 167.505 1.670,150.673 5.037,133.347 11.199 C 46.004 42.259,-8.502 128.405,0.910 220.513 C 11.326 322.441,97.350 399.993,200.000 399.993 C 302.573 399.993,388.569 322.406,398.960 220.488 C 410.504 107.255,326.421 7.888,212.608 0.263 C 209.101 0.028,191.408 -0.039,188.462 0.172 M209.487 5.647 C 327.252 11.714,412.269 119.073,391.282 235.215 C 377.054 313.952,313.937 377.111,235.343 391.256 C 106.194 414.500,-7.839 307.979,6.681 177.659 C 17.970 76.353,107.526 0.394,209.487 5.647 M191.859 10.433 C 192.106 10.498,192.510 10.498,192.756 10.433 C 193.003 10.369,192.801 10.316,192.308 10.316 C 191.814 10.316,191.612 10.369,191.859 10.433 M206.987 10.433 C 207.234 10.498,207.638 10.498,207.885 10.433 C 208.131 10.369,207.929 10.316,207.436 10.316 C 206.942 10.316,206.740 10.369,206.987 10.433 M186.770 20.614 C 186.694 20.811,186.678 21.417,186.735 21.960 C 186.833 22.909,186.839 22.901,186.880 21.744 L 186.923 20.538 188.397 20.446 L 189.872 20.353 188.389 20.305 C 187.323 20.270,186.868 20.357,186.770 20.614 M192.381 23.010 C 193.197 23.061,194.466 23.061,195.202 23.009 C 195.937 22.958,195.269 22.916,193.718 22.916 C 192.167 22.917,191.565 22.959,192.381 23.010 M189.828 27.821 C 189.829 28.808,189.875 29.180,189.931 28.648 C 189.986 28.116,189.985 27.308,189.929 26.853 C 189.872 26.398,189.827 26.833,189.828 27.821 M187.009 35.897 C 187.009 36.955,187.055 37.388,187.110 36.859 C 187.165 36.330,187.165 35.465,187.110 34.936 C 187.055 34.407,187.009 34.840,187.009 35.897 M271.734 36.079 C 272.053 36.140,272.514 36.138,272.759 36.074 C 273.005 36.009,272.744 35.959,272.179 35.962 C 271.615 35.965,271.415 36.017,271.734 36.079 M190.956 39.672 C 191.411 39.729,192.219 39.730,192.751 39.674 C 193.283 39.619,192.910 39.572,191.923 39.571 C 190.936 39.570,190.501 39.616,190.956 39.672 M242.378 40.513 C 242.378 41.147,242.428 41.407,242.489 41.090 C 242.550 40.772,242.550 40.253,242.489 39.936 C 242.428 39.619,242.378 39.878,242.378 40.513 M248.782 47.356 C 249.029 47.421,249.433 47.421,249.679 47.356 C 249.926 47.292,249.724 47.239,249.231 47.239 C 248.737 47.239,248.535 47.292,248.782 47.356 M193.718 48.735 C 114.941 51.868,51.654 115.410,48.745 194.295 C 45.140 292.051,133.753 367.457,229.744 348.316 C 289.396 336.421,336.421 289.396,348.316 229.744 C 367.500 133.538,291.741 44.837,193.718 48.735 M209.640 54.377 C 285.707 59.486,345.213 122.433,345.729 198.333 L 345.769 204.231 336.026 204.364 L 326.282 204.496 335.962 204.556 L 345.641 204.615 345.638 206.603 C 345.608 229.533,335.845 259.260,321.153 281.154 C 261.600 369.903,129.714 366.472,74.691 274.744 C 62.351 254.171,54.135 226.465,54.104 205.321 L 54.103 204.615 56.859 204.561 L 59.615 204.506 56.822 204.424 L 54.029 204.341 54.182 196.850 C 55.740 120.541,114.437 59.613,191.538 54.272 C 194.524 54.065,205.991 54.131,209.640 54.377 M203.785 101.542 C 187.135 103.453,173.106 111.042,163.230 123.482 C 162.018 125.009,161.026 126.381,161.026 126.531 C 161.026 126.703,163.338 126.965,167.333 127.245 C 170.803 127.488,176.100 127.939,179.105 128.247 L 184.569 128.806 187.349 126.738 C 210.452 109.552,243.829 112.876,261.670 134.140 C 262.726 135.398,263.590 136.336,263.590 136.223 C 263.590 135.075,258.856 127.099,255.939 123.333 C 244.324 108.335,222.835 99.357,203.785 101.542 M143.900 130.793 C 119.070 131.801,104.337 136.572,104.925 143.413 C 105.653 151.877,120.754 159.528,147.530 164.997 C 152.661 166.045,151.946 165.518,152.688 168.802 C 156.504 185.690,168.515 200.500,184.048 207.469 L 185.692 208.207 182.459 205.100 C 164.399 187.747,160.988 162.004,173.971 141.050 L 175.465 138.639 181.258 138.809 C 216.785 139.853,259.305 147.629,280.897 157.031 L 282.436 157.701 281.667 157.032 C 264.783 142.346,193.539 128.776,143.900 130.793 M154.359 139.455 C 154.359 139.578,154.194 140.148,153.991 140.721 C 151.942 146.528,150.852 157.521,151.742 163.397 C 151.875 164.272,151.871 164.872,151.733 164.872 C 150.474 164.872,140.250 161.492,137.084 160.030 C 129.659 156.599,125.297 151.042,127.080 147.284 C 128.530 144.227,135.313 141.592,145.476 140.138 C 151.736 139.243,154.359 139.041,154.359 139.455 M271.990 178.386 C 272.309 178.448,272.771 178.445,273.016 178.381 C 273.261 178.317,273.000 178.267,272.436 178.270 C 271.872 178.273,271.671 178.325,271.990 178.386 M279.682 178.386 C 280.001 178.448,280.463 178.445,280.708 178.381 C 280.953 178.317,280.692 178.267,280.128 178.270 C 279.564 178.273,279.364 178.325,279.682 178.386 M268.135 189.929 C 268.590 189.985,269.398 189.986,269.930 189.931 C 270.462 189.875,270.090 189.829,269.103 189.828 C 268.115 189.827,267.680 189.872,268.135 189.929 M274.679 189.930 C 275.208 189.986,276.074 189.986,276.603 189.930 C 277.131 189.875,276.699 189.830,275.641 189.830 C 274.583 189.830,274.151 189.875,274.679 189.930 M10.316 192.564 C 10.316 193.058,10.369 193.260,10.433 193.013 C 10.498 192.766,10.498 192.362,10.433 192.115 C 10.369 191.869,10.316 192.071,10.316 192.564 M389.594 199.872 C 389.594 202.551,389.632 203.613,389.678 202.230 C 389.725 200.848,389.724 198.656,389.678 197.358 C 389.632 196.061,389.594 197.192,389.594 199.872 M103.397 195.818 C 103.644 195.882,104.048 195.882,104.295 195.818 C 104.542 195.753,104.340 195.701,103.846 195.701 C 103.353 195.701,103.151 195.753,103.397 195.818 M120.321 195.818 C 120.567 195.882,120.971 195.882,121.218 195.818 C 121.465 195.753,121.263 195.701,120.769 195.701 C 120.276 195.701,120.074 195.753,120.321 195.818 M66.987 200.440 C 67.375 200.499,68.010 200.499,68.397 200.440 C 68.785 200.381,68.468 200.333,67.692 200.333 C 66.917 200.333,66.599 200.381,66.987 200.440 M91.603 200.440 C 91.990 200.499,92.625 200.499,93.013 200.440 C 93.401 200.381,93.083 200.333,92.308 200.333 C 91.532 200.333,91.215 200.381,91.603 200.440 M71.859 204.799 C 72.247 204.858,72.881 204.858,73.269 204.799 C 73.657 204.740,73.340 204.692,72.564 204.692 C 71.788 204.692,71.471 204.740,71.859 204.799 M312.632 204.799 C 313.021 204.858,313.598 204.857,313.914 204.796 C 314.229 204.735,313.910 204.687,313.205 204.689 C 312.500 204.691,312.242 204.740,312.632 204.799 M81.221 205.053 C 81.540 205.114,82.001 205.112,82.247 205.048 C 82.492 204.984,82.231 204.934,81.667 204.936 C 81.103 204.939,80.902 204.992,81.221 205.053 M303.529 205.053 C 303.848 205.114,304.309 205.112,304.554 205.048 C 304.799 204.984,304.538 204.934,303.974 204.936 C 303.410 204.939,303.210 204.992,303.529 205.053 M88.269 205.305 C 88.516 205.369,88.920 205.369,89.167 205.305 C 89.413 205.240,89.212 205.188,88.718 205.188 C 88.224 205.188,88.022 205.240,88.269 205.305 M10.316 207.436 C 10.316 207.929,10.369 208.131,10.433 207.885 C 10.498 207.638,10.498 207.234,10.433 206.987 C 10.369 206.740,10.316 206.942,10.316 207.436 M95.379 238.782 C 95.224 239.381,95.039 240.074,94.967 240.321 C 94.855 240.710,95.026 240.769,96.260 240.769 C 97.603 240.769,97.691 240.730,97.841 240.064 C 97.927 239.676,98.093 238.984,98.209 238.526 L 98.420 237.692 97.040 237.692 L 95.661 237.692 95.379 238.782 M117.544 238.654 C 117.457 239.042,117.293 239.726,117.180 240.175 C 116.918 241.211,117.003 241.282,118.499 241.282 C 119.637 241.282,119.746 241.227,119.892 240.577 C 119.979 240.189,120.143 239.505,120.256 239.056 C 120.517 238.020,120.433 237.949,118.937 237.949 C 117.799 237.949,117.690 238.004,117.544 238.654 M235.975 241.369 C 234.669 242.163,234.632 242.219,234.180 244.103 L 233.718 246.026 232.699 246.042 C 231.727 246.058,231.665 246.109,231.369 247.132 L 231.058 248.205 232.156 248.205 L 233.253 248.205 232.015 253.654 C 230.594 259.906,230.545 260.469,231.346 261.220 C 233.200 262.957,235.921 262.669,236.266 260.700 L 236.435 259.734 235.441 259.892 C 234.703 260.010,234.339 259.943,234.027 259.631 C 233.543 259.148,233.497 259.467,234.989 252.949 L 236.045 248.333 237.246 248.395 C 238.530 248.460,238.729 248.292,239.072 246.859 C 239.239 246.161,239.227 246.154,237.954 246.154 C 236.445 246.154,236.469 246.242,237.178 243.285 C 237.947 240.078,237.988 240.144,235.975 241.369 M270.385 241.090 C 270.323 241.266,269.909 243.026,269.464 245.000 C 269.019 246.974,268.627 248.621,268.594 248.660 C 268.561 248.699,268.081 248.277,267.527 247.723 C 263.490 243.686,256.856 248.244,256.244 255.476 C 255.721 261.661,260.843 265.019,265.163 261.321 C 265.970 260.630,266.186 260.534,266.078 260.914 C 266.001 261.187,265.861 261.676,265.768 262.001 C 265.603 262.572,265.645 262.590,266.953 262.514 L 268.309 262.436 270.680 252.051 C 271.985 246.340,273.058 241.465,273.065 241.218 C 273.080 240.664,270.575 240.545,270.385 241.090 M312.564 242.652 C 311.160 243.484,311.152 243.497,310.670 245.462 L 310.187 247.436 309.100 247.436 C 308.088 247.436,308.002 247.491,307.853 248.237 C 307.607 249.465,307.622 249.487,308.735 249.487 C 309.610 249.487,309.756 249.560,309.641 249.936 C 309.288 251.088,307.179 260.787,307.179 261.256 C 307.179 262.812,310.837 264.376,312.212 263.408 C 312.915 262.914,312.906 261.080,312.201 261.215 C 309.925 261.650,309.860 261.144,311.355 254.615 L 312.441 249.872 313.776 249.795 C 315.076 249.719,315.118 249.692,315.375 248.769 C 315.751 247.415,315.767 247.436,314.359 247.436 C 313.654 247.436,313.077 247.331,313.077 247.202 C 313.077 247.073,313.352 245.804,313.688 244.382 C 314.024 242.959,314.226 241.799,314.137 241.805 C 314.048 241.810,313.340 242.191,312.564 242.652 M80.385 243.392 C 74.458 245.504,72.228 255.051,76.895 258.331 C 78.569 259.508,81.481 259.475,83.204 258.260 C 84.118 257.616,84.368 257.526,84.266 257.876 C 84.193 258.127,83.999 258.852,83.835 259.486 C 83.102 262.313,81.911 263.333,79.341 263.333 C 77.466 263.333,76.410 262.587,76.410 261.261 C 76.410 260.914,76.231 260.769,75.801 260.769 C 75.466 260.769,74.832 260.697,74.391 260.609 C 72.451 260.221,73.644 263.836,75.808 264.901 C 80.043 266.985,85.098 264.926,86.398 260.588 C 86.910 258.878,90.256 244.362,90.256 243.851 C 90.256 243.707,89.690 243.590,88.997 243.590 L 87.737 243.590 87.564 244.615 C 87.353 245.867,87.405 245.866,86.170 244.632 C 84.726 243.187,82.373 242.683,80.385 243.392 M94.224 243.910 C 94.039 244.411,90.769 258.883,90.769 259.203 C 90.769 259.375,91.300 259.487,92.115 259.487 L 93.462 259.486 95.204 251.730 C 96.163 247.465,96.942 243.888,96.935 243.782 C 96.914 243.444,94.352 243.565,94.224 243.910 M99.231 243.807 C 99.231 243.914,99.749 247.514,100.383 251.808 C 101.018 256.102,101.537 259.650,101.537 259.692 C 101.538 259.734,102.249 259.734,103.117 259.692 L 104.695 259.615 109.270 251.959 C 114.517 243.180,114.255 243.846,112.461 243.846 L 111.076 243.846 107.874 249.423 C 106.113 252.490,104.445 255.453,104.166 256.007 L 103.660 257.014 103.485 255.494 C 103.242 253.393,101.996 243.981,101.956 243.946 C 101.776 243.792,99.231 243.662,99.231 243.807 M129.030 244.209 C 128.426 244.405,127.315 245.032,126.561 245.602 L 125.189 246.638 125.409 245.691 C 125.766 244.152,125.738 244.103,124.502 244.103 C 123.072 244.103,123.392 243.290,121.429 251.908 C 119.389 260.866,119.425 260.045,121.082 259.949 L 122.421 259.872 123.461 255.385 C 125.142 248.126,127.138 245.608,130.684 246.273 C 132.556 246.624,132.576 247.006,131.076 253.688 C 129.445 260.951,129.444 260.301,131.087 260.206 L 132.430 260.128 133.655 254.872 C 135.417 247.319,135.376 246.102,133.314 244.562 C 132.473 243.934,130.399 243.763,129.030 244.209 M114.539 251.859 C 113.581 256.125,112.802 259.708,112.808 259.821 C 112.815 259.934,113.426 259.992,114.165 259.949 L 115.510 259.872 117.097 252.949 C 117.970 249.141,118.760 245.593,118.852 245.064 L 119.019 244.103 117.651 244.103 L 116.282 244.104 114.539 251.859 M143.378 244.483 C 137.749 246.240,135.157 254.915,139.087 258.844 C 141.007 260.764,143.649 260.955,146.021 259.346 C 147.207 258.541,147.200 258.533,146.754 260.256 C 145.922 263.475,144.936 264.358,142.172 264.359 C 140.356 264.359,139.590 263.931,139.284 262.745 C 139.086 261.979,138.982 261.914,137.741 261.788 L 136.410 261.652 136.411 262.685 C 136.414 265.296,138.314 266.538,142.308 266.538 C 147.887 266.538,148.409 265.758,151.298 253.102 C 153.432 243.750,153.380 244.615,151.811 244.615 L 150.544 244.615 150.370 245.776 L 150.196 246.937 148.978 245.798 C 147.235 244.167,145.612 243.786,143.378 244.483 M168.672 245.020 C 164.940 246.169,161.895 251.950,162.800 256.171 C 164.242 262.895,173.475 262.969,176.667 256.282 C 180.067 249.157,175.614 242.884,168.672 245.020 M181.293 251.280 C 180.382 255.397,179.981 257.730,180.079 258.334 C 180.669 261.974,185.546 262.558,188.942 259.395 L 189.807 258.590 189.632 259.569 C 189.536 260.108,189.391 260.721,189.311 260.930 C 189.191 261.243,189.408 261.297,190.532 261.232 L 191.899 261.154 193.630 253.590 C 194.581 249.429,195.366 245.881,195.372 245.705 C 195.381 245.487,194.947 245.385,194.020 245.385 L 192.655 245.385 191.660 249.808 C 190.172 256.427,188.749 258.669,185.750 259.119 C 182.588 259.593,182.408 258.780,184.053 251.453 C 184.787 248.186,185.387 245.426,185.386 245.321 C 185.385 245.215,184.770 245.128,184.019 245.128 L 182.654 245.128 181.293 251.280 M204.905 245.457 C 204.429 245.609,203.462 246.318,202.755 247.033 C 201.949 247.848,201.525 248.142,201.619 247.821 C 201.700 247.538,201.846 246.868,201.941 246.331 L 202.114 245.354 200.885 245.433 L 199.655 245.513 197.919 253.077 C 196.964 257.237,196.176 260.774,196.168 260.937 C 196.160 261.111,196.677 261.269,197.431 261.321 L 198.709 261.410 199.372 258.462 C 201.299 249.895,203.629 246.579,206.604 248.172 C 206.997 248.382,207.161 248.373,207.259 248.136 C 207.331 247.963,207.576 247.383,207.805 246.849 L 208.220 245.878 207.324 245.503 C 206.305 245.077,206.105 245.073,204.905 245.457 M84.385 245.967 C 87.955 248.352,85.502 256.435,81.078 256.860 C 77.840 257.171,76.374 254.192,77.685 249.963 C 78.851 246.202,81.961 244.347,84.385 245.967 M221.770 245.661 C 219.062 246.081,217.436 247.767,217.436 250.158 C 217.436 252.083,218.514 253.170,222.051 254.809 C 224.691 256.032,225.191 256.531,225.081 257.834 C 224.806 261.099,218.468 260.529,218.021 257.199 L 217.881 256.154 216.505 256.154 L 215.128 256.154 215.134 257.115 C 215.169 263.048,226.371 264.064,227.930 258.276 C 228.569 255.902,227.427 254.397,223.458 252.384 C 220.298 250.782,219.713 250.194,220.203 249.117 C 221.203 246.923,225.409 247.369,226.352 249.770 C 226.863 251.072,229.231 251.360,229.231 250.120 C 229.231 247.152,225.713 245.050,221.770 245.661 M242.051 246.292 C 242.051 246.368,241.474 248.960,240.769 252.051 C 239.345 258.294,239.242 259.467,240.008 260.723 C 241.506 263.179,245.402 263.051,248.370 260.447 C 249.425 259.521,249.374 259.393,248.834 261.603 C 248.618 262.488,251.119 262.740,251.381 261.859 C 251.455 261.612,252.219 258.295,253.078 254.487 C 253.938 250.679,254.706 247.304,254.785 246.987 C 254.920 246.441,254.851 246.410,253.510 246.410 L 252.093 246.410 251.536 248.910 C 249.698 257.156,249.092 258.465,246.568 259.640 C 245.124 260.313,244.107 260.411,243.252 259.962 C 241.994 259.299,242.007 258.976,243.590 252.001 C 244.295 248.893,244.872 246.306,244.872 246.252 C 244.872 246.198,244.237 246.154,243.462 246.154 C 242.686 246.154,242.051 246.216,242.051 246.292 M146.765 246.766 C 151.567 248.772,147.562 259.476,142.569 257.981 C 140.135 257.251,139.299 253.649,140.784 250.291 C 142.184 247.126,144.442 245.795,146.765 246.766 M280.444 246.690 C 273.587 247.767,270.438 258.727,275.998 262.164 C 279.331 264.224,284.140 262.780,286.317 259.066 C 287.106 257.720,287.132 257.767,285.508 257.572 C 284.281 257.424,284.211 257.451,283.718 258.239 C 281.240 262.204,276.316 261.403,276.089 256.998 L 276.026 255.769 281.783 255.700 C 288.326 255.622,287.939 255.771,287.945 253.315 C 287.956 248.704,284.885 245.992,280.444 246.690 M173.257 247.426 C 175.052 248.520,175.537 251.618,174.387 254.636 C 171.820 261.373,164.384 260.006,165.650 253.030 C 166.503 248.325,170.229 245.579,173.257 247.426 M298.495 247.318 C 298.021 247.524,297.050 248.120,296.339 248.642 L 295.047 249.591 295.228 248.834 C 295.327 248.418,295.469 247.875,295.542 247.628 C 295.657 247.243,295.494 247.179,294.394 247.179 C 293.395 247.179,293.081 247.279,292.975 247.628 C 292.825 248.125,289.487 262.808,289.487 262.973 C 289.487 263.030,290.122 263.077,290.897 263.077 C 291.673 263.077,292.308 263.016,292.308 262.941 C 292.308 262.048,294.503 253.547,294.970 252.632 C 296.800 249.045,302.051 247.781,302.051 250.927 C 302.051 251.628,300.170 260.550,299.592 262.593 C 299.461 263.058,301.705 263.525,302.113 263.118 C 302.471 262.760,304.859 252.024,304.866 250.743 C 304.881 247.803,301.529 246.001,298.495 247.318 M321.206 247.530 C 317.650 248.530,316.463 252.750,319.144 254.859 C 319.525 255.158,320.824 255.866,322.029 256.431 C 324.737 257.700,325.385 258.274,325.385 259.404 C 325.385 262.846,318.683 262.364,318.219 258.888 C 318.135 258.259,317.945 257.831,317.756 257.846 C 317.580 257.860,316.960 257.889,316.379 257.910 L 315.321 257.949 315.437 259.340 C 315.924 265.215,327.478 265.505,328.137 259.660 C 328.417 257.173,327.593 256.108,324.002 254.316 C 320.058 252.349,319.451 251.493,321.045 250.151 C 322.865 248.620,326.667 249.857,326.667 251.980 C 326.667 252.519,326.779 252.564,328.111 252.564 L 329.555 252.564 329.415 251.523 C 329.003 248.450,324.948 246.477,321.206 247.530 M266.084 249.130 C 269.470 251.273,266.704 260.105,262.539 260.451 C 259.057 260.740,257.838 256.507,260.090 251.949 C 261.656 248.781,263.881 247.735,266.084 249.130 M283.315 249.167 C 284.533 249.788,285.111 250.679,285.293 252.212 L 285.448 253.520 281.121 253.394 C 276.164 253.250,276.496 253.340,276.940 252.266 C 278.075 249.526,281.118 248.047,283.315 249.167 M150.518 279.808 C 149.201 285.625,148.073 290.529,148.009 290.705 C 147.926 290.937,148.287 291.026,149.314 291.026 C 150.447 291.026,150.761 290.935,150.863 290.577 C 150.934 290.330,151.355 288.513,151.799 286.538 C 153.360 279.592,154.366 278.008,157.595 277.405 C 159.515 277.046,160.502 277.649,160.509 279.184 C 160.512 279.873,158.552 289.157,158.049 290.833 C 157.932 291.223,158.102 291.282,159.337 291.282 C 160.601 291.282,160.775 291.218,160.895 290.705 C 162.409 284.248,163.333 279.721,163.332 278.764 C 163.329 274.895,158.780 273.692,155.017 276.566 C 154.088 277.275,153.825 277.385,153.934 277.020 C 154.152 276.286,155.641 269.671,155.641 269.437 C 155.641 269.323,155.027 269.231,154.276 269.231 L 152.911 269.231 150.518 279.808 M145.464 270.343 C 144.163 271.135,144.121 271.199,143.657 273.077 L 143.182 275.000 142.132 275.077 C 141.144 275.150,141.066 275.215,140.824 276.167 L 140.567 277.179 141.652 277.179 L 142.737 277.179 141.507 282.500 C 140.061 288.756,140.001 289.531,140.901 290.366 C 142.321 291.681,145.629 291.548,145.645 290.174 C 145.646 290.008,145.715 289.622,145.797 289.316 C 145.935 288.800,145.874 288.770,144.942 288.895 C 144.215 288.992,143.821 288.913,143.516 288.607 C 143.029 288.120,142.988 288.407,144.470 281.923 L 145.525 277.308 146.710 277.390 C 148.003 277.480,148.162 277.354,148.468 275.995 L 148.664 275.128 147.409 275.128 C 145.934 275.128,145.957 275.221,146.667 272.179 C 147.404 269.017,147.472 269.120,145.464 270.343 M244.359 270.900 C 244.359 270.972,243.263 275.869,241.923 281.782 C 240.583 287.694,239.487 292.597,239.487 292.676 C 239.487 292.937,242.017 292.827,242.183 292.559 C 242.316 292.344,247.179 271.245,247.179 270.883 C 247.179 270.820,246.545 270.769,245.769 270.769 C 244.994 270.769,244.359 270.828,244.359 270.900 M261.406 271.346 C 261.343 271.522,260.938 273.224,260.508 275.128 C 260.077 277.032,259.674 278.737,259.612 278.917 C 259.541 279.122,259.154 278.864,258.578 278.226 C 255.118 274.396,248.755 277.886,247.411 284.352 C 245.992 291.182,251.069 295.724,255.869 291.918 C 257.238 290.834,257.198 290.836,256.905 291.857 C 256.556 293.076,256.557 293.077,257.931 293.077 C 258.916 293.077,259.225 292.977,259.326 292.628 C 259.590 291.713,264.103 271.565,264.103 271.300 C 264.103 270.902,261.551 270.946,261.406 271.346 M172.496 275.395 C 165.403 277.156,163.036 288.409,169.168 291.217 C 172.602 292.789,177.125 291.061,178.954 287.477 L 179.467 286.470 178.676 286.312 C 177.118 286.001,176.792 286.116,175.979 287.269 C 173.349 291.001,168.462 289.735,168.462 285.321 L 168.462 284.216 174.321 284.317 L 180.180 284.418 180.343 283.427 C 181.212 278.168,177.330 274.195,172.496 275.395 M192.134 277.101 C 192.217 277.779,192.537 281.333,192.845 285.000 C 193.152 288.667,193.416 291.684,193.432 291.705 C 193.448 291.726,194.096 291.783,194.872 291.833 L 196.282 291.923 197.493 289.487 C 198.160 288.147,199.443 285.469,200.346 283.536 L 201.987 280.020 202.144 282.766 C 202.231 284.277,202.376 286.984,202.468 288.782 L 202.634 292.051 204.073 292.050 L 205.513 292.049 209.423 284.397 C 213.907 275.623,213.737 276.154,212.053 276.154 L 210.773 276.154 209.065 279.551 C 208.126 281.420,206.814 284.134,206.150 285.583 L 204.942 288.218 204.776 284.942 C 204.684 283.141,204.538 280.426,204.451 278.910 L 204.293 276.154 202.772 276.154 L 201.251 276.154 199.310 280.192 C 198.242 282.413,196.991 285.137,196.531 286.244 L 195.693 288.257 195.523 285.731 C 195.429 284.342,195.216 281.590,195.048 279.615 L 194.744 276.026 193.362 275.947 L 191.981 275.868 192.134 277.101 M218.788 276.578 C 215.406 277.776,212.796 282.499,213.141 286.797 C 213.798 294.991,225.127 294.528,227.698 286.202 C 229.804 279.385,225.127 274.334,218.788 276.578 M237.692 276.922 C 237.199 277.219,236.373 277.935,235.858 278.512 L 234.922 279.562 235.258 278.114 L 235.595 276.667 234.341 276.667 C 233.252 276.667,233.069 276.743,232.949 277.244 C 232.603 278.690,229.487 292.427,229.487 292.504 C 229.487 292.552,230.091 292.556,230.829 292.513 L 232.170 292.436 233.137 288.205 C 234.783 280.999,237.132 277.987,240.056 279.333 C 240.637 279.600,241.821 277.360,241.348 276.887 C 240.778 276.316,238.665 276.337,237.692 276.922 M175.922 277.833 C 176.975 278.378,177.690 279.642,177.691 280.962 L 177.692 282.051 173.330 282.051 L 168.967 282.051 169.342 281.154 C 170.588 278.173,173.620 276.643,175.922 277.833 M223.811 278.900 C 227.049 281.272,225.005 289.018,220.810 290.275 C 216.926 291.438,214.851 287.670,216.549 282.536 C 217.679 279.121,221.501 277.208,223.811 278.900 M256.691 279.371 C 260.550 281.367,257.667 291.002,253.205 291.020 C 251.082 291.029,249.878 289.179,250.052 286.174 C 250.337 281.247,253.684 277.817,256.691 279.371 M126.213 341.538 C 126.213 342.032,126.266 342.234,126.331 341.987 C 126.395 341.740,126.395 341.337,126.331 341.090 C 126.266 340.843,126.213 341.045,126.213 341.538 M289.808 354.279 C 290.054 354.344,290.458 354.344,290.705 354.279 C 290.952 354.215,290.750 354.162,290.256 354.162 C 289.763 354.162,289.561 354.215,289.808 354.279 M171.469 363.775 C 171.924 363.831,172.732 363.832,173.264 363.777 C 173.796 363.721,173.423 363.675,172.436 363.674 C 171.449 363.673,171.013 363.718,171.469 363.775 M201.090 366.331 C 201.337 366.395,201.740 366.395,201.987 366.331 C 202.234 366.266,202.032 366.213,201.538 366.213 C 201.045 366.213,200.843 366.266,201.090 366.331 M209.304 369.359 C 209.306 370.064,209.356 370.322,209.415 369.932 C 209.474 369.543,209.472 368.966,209.411 368.650 C 209.350 368.335,209.302 368.654,209.304 369.359 M197.500 389.678 C 198.875 389.724,201.125 389.724,202.500 389.678 C 203.875 389.632,202.750 389.595,200.000 389.595 C 197.250 389.595,196.125 389.632,197.500 389.678 " stroke="none" fill="#00aeef" fill-rule="evenodd"></path><path id="path2" d="M189.487 5.672 C 76.825 11.664,-7.189 112.367,6.935 224.487 C 20.112 329.085,114.954 404.295,220.000 393.449 C 309.150 384.245,380.713 314.969,392.686 226.282 C 395.312 206.824,394.830 183.891,391.400 165.201 C 373.681 68.653,287.377 0.465,189.487 5.672 M216.154 10.881 C 325.746 21.209,403.181 118.849,387.690 227.179 C 376.034 308.700,312.129 373.849,230.769 387.157 C 116.570 405.836,12.442 319.061,10.340 203.462 C 8.489 101.654,86.225 17.391,188.333 10.521 C 193.392 10.181,211.167 10.411,216.154 10.881 M188.397 20.432 L 186.923 20.538 186.923 25.228 C 186.923 27.807,186.999 32.705,187.092 36.112 L 187.262 42.308 190.618 42.301 C 201.643 42.278,205.119 39.636,205.119 31.282 C 205.119 22.304,200.847 19.532,188.397 20.432 M212.028 20.577 C 211.555 21.888,209.410 41.958,209.729 42.098 C 210.140 42.278,225.426 44.159,225.518 44.040 C 225.546 44.004,225.639 43.438,225.725 42.783 C 225.910 41.365,226.715 41.606,218.462 40.611 C 215.288 40.229,212.663 39.896,212.627 39.871 C 212.310 39.654,213.472 32.566,213.823 32.575 C 214.047 32.581,216.736 32.905,219.799 33.296 C 225.946 34.080,225.641 34.130,225.641 32.339 L 225.641 31.386 219.819 30.682 C 216.616 30.296,213.947 29.930,213.887 29.870 C 213.764 29.746,214.506 23.614,214.664 23.456 C 214.720 23.400,217.530 23.694,220.909 24.111 C 224.287 24.528,227.125 24.869,227.214 24.870 C 227.408 24.872,227.783 22.569,227.615 22.402 C 227.372 22.159,212.103 20.371,212.028 20.577 M171.026 22.636 C 170.250 22.767,169.583 22.904,169.544 22.940 C 169.441 23.035,164.618 45.730,164.687 45.796 C 164.753 45.861,167.533 45.370,167.628 45.277 C 167.663 45.243,167.992 43.724,168.360 41.902 C 169.163 37.918,168.369 38.554,173.587 37.714 L 177.991 37.006 178.325 37.541 C 178.508 37.836,179.318 39.211,180.125 40.597 L 181.592 43.118 182.912 42.940 C 183.637 42.843,184.362 42.690,184.522 42.600 C 184.771 42.459,173.304 23.128,172.640 22.569 C 172.528 22.475,171.801 22.505,171.026 22.636 M197.179 23.097 C 203.342 24.506,203.966 37.166,197.968 39.081 C 196.246 39.631,190.299 39.914,190.152 39.454 C 190.091 39.261,189.968 35.505,189.878 31.108 L 189.715 23.114 190.434 23.006 C 191.900 22.785,196.062 22.841,197.179 23.097 M175.102 31.881 C 175.985 33.409,176.670 34.696,176.623 34.739 C 176.502 34.854,169.682 35.922,169.604 35.839 C 169.569 35.800,169.929 33.808,170.406 31.410 C 170.882 29.013,171.276 26.590,171.281 26.026 L 171.291 25.000 172.394 27.051 C 173.000 28.179,174.219 30.353,175.102 31.881 M148.607 27.709 C 147.111 28.082,139.917 30.292,139.588 30.479 C 139.368 30.604,144.702 48.829,145.650 51.194 C 145.798 51.563,153.861 49.128,155.824 48.122 C 159.280 46.350,160.395 44.355,160.363 40.000 C 160.302 31.742,154.935 26.130,148.607 27.709 M246.390 28.022 C 238.987 31.142,236.960 43.581,243.159 47.852 C 248.001 51.189,254.450 50.291,257.000 45.924 L 257.462 45.133 256.274 44.380 L 255.087 43.627 253.505 45.236 C 250.266 48.531,245.190 47.732,243.080 43.596 C 241.708 40.906,242.585 35.854,244.995 32.571 C 248.375 27.967,255.843 29.562,256.625 35.054 L 256.799 36.282 258.309 36.360 L 259.818 36.438 259.658 35.080 C 258.983 29.383,251.989 25.663,246.390 28.022 M152.800 30.759 C 156.685 32.741,158.901 40.579,156.571 44.100 C 155.678 45.450,148.476 48.562,147.803 47.889 C 147.244 47.330,142.875 32.061,143.269 32.042 C 143.375 32.037,144.731 31.639,146.282 31.157 C 149.574 30.133,151.360 30.024,152.800 30.759 M269.191 36.497 C 261.543 39.346,258.628 50.449,264.183 55.569 C 271.914 62.695,283.529 56.336,282.736 45.412 C 282.286 39.224,274.907 34.367,269.191 36.497 M120.641 38.505 C 120.077 38.799,119.580 39.070,119.536 39.107 C 119.441 39.189,128.677 58.247,128.950 58.531 C 129.241 58.836,131.581 57.709,131.490 57.309 C 131.291 56.445,122.151 37.964,121.923 37.967 C 121.782 37.970,121.205 38.212,120.641 38.505 M275.183 39.226 C 280.657 41.275,281.464 48.242,276.837 53.499 C 272.277 58.679,264.231 55.615,264.231 48.699 C 264.231 42.144,269.894 37.245,275.183 39.226 M111.410 43.233 C 110.564 43.741,109.850 44.176,109.823 44.200 C 109.796 44.224,110.685 48.506,111.798 53.715 C 112.911 58.925,113.798 63.206,113.770 63.229 C 113.741 63.252,110.891 60.851,107.436 57.893 C 103.981 54.936,100.664 52.109,100.065 51.612 L 98.977 50.709 97.181 51.776 C 96.193 52.363,95.385 52.952,95.385 53.084 C 95.385 53.257,106.191 71.359,106.507 71.715 C 106.531 71.742,107.092 71.427,107.754 71.015 L 108.958 70.266 104.649 63.146 C 102.280 59.230,100.187 55.737,100.000 55.385 C 99.576 54.586,98.885 54.039,107.380 61.218 C 111.093 64.356,114.242 66.923,114.378 66.923 C 114.899 66.923,116.646 65.629,116.540 65.322 C 116.276 64.563,112.812 47.616,112.902 47.525 C 112.957 47.470,114.924 50.630,117.273 54.546 C 119.622 58.462,121.650 61.833,121.779 62.037 C 122.024 62.422,123.527 61.835,124.128 61.120 C 124.358 60.846,113.626 42.532,113.141 42.373 C 113.035 42.338,112.256 42.725,111.410 43.233 M134.938 45.858 C 133.071 46.655,131.542 47.448,131.541 47.620 C 131.537 48.150,132.387 49.744,132.676 49.745 C 132.909 49.746,139.706 46.971,139.963 46.769 C 140.233 46.558,139.114 44.362,138.747 44.384 C 138.520 44.398,136.806 45.061,134.938 45.858 M288.214 51.166 C 283.516 58.449,282.982 59.530,282.966 61.795 C 282.928 67.312,291.017 72.168,295.680 69.427 C 297.416 68.407,298.546 66.992,302.462 60.937 C 304.392 57.954,306.121 55.282,306.304 55.000 C 306.608 54.532,306.529 54.416,305.404 53.674 L 304.170 52.861 300.541 58.453 C 294.035 68.479,292.235 69.451,287.640 65.417 C 284.453 62.618,284.778 61.724,294.196 47.394 L 294.645 46.712 293.494 45.920 C 292.861 45.484,292.290 45.128,292.226 45.128 C 292.161 45.128,290.355 47.845,288.214 51.166 M191.538 54.272 C 118.794 59.311,62.294 113.515,54.738 185.513 C 54.054 192.037,53.907 204.358,54.514 204.363 C 120.956 204.965,170.910 210.908,190.717 220.567 L 192.845 221.604 195.392 220.406 C 217.050 210.219,263.423 205.067,340.513 204.284 L 345.769 204.231 345.729 198.333 C 345.167 115.645,273.409 48.601,191.538 54.272 M310.236 61.859 C 308.905 63.446,305.744 67.211,303.213 70.227 L 298.611 75.711 299.626 76.569 C 300.184 77.042,300.701 77.430,300.774 77.432 C 300.848 77.434,303.327 74.547,306.284 71.017 C 309.241 67.486,311.687 64.688,311.719 64.799 C 311.750 64.910,311.275 69.442,310.661 74.872 L 309.547 84.744 310.575 85.705 C 311.141 86.234,311.700 86.667,311.816 86.667 C 312.035 86.667,325.908 70.235,325.884 70.003 C 325.877 69.931,325.410 69.503,324.846 69.051 L 323.822 68.231 322.984 69.179 C 322.524 69.701,320.091 72.585,317.579 75.587 C 315.067 78.589,312.970 81.004,312.919 80.953 C 312.868 80.902,313.287 76.667,313.849 71.542 C 315.110 60.051,315.110 60.846,313.859 59.808 C 313.307 59.349,312.811 58.974,312.757 58.974 C 312.702 58.974,311.568 60.272,310.236 61.859 M82.831 62.285 L 81.688 63.273 84.855 73.624 C 86.597 79.317,88.127 84.352,88.256 84.814 L 88.489 85.653 89.650 84.819 C 90.289 84.361,90.857 83.912,90.913 83.822 C 90.968 83.732,90.555 82.292,89.994 80.623 C 89.433 78.954,88.974 77.445,88.974 77.271 C 88.974 76.824,95.842 71.462,96.224 71.611 C 96.397 71.678,97.793 72.488,99.326 73.410 L 102.114 75.087 103.350 74.146 C 104.030 73.629,104.593 73.142,104.601 73.066 C 104.615 72.926,84.330 61.275,84.097 61.290 C 84.030 61.294,83.460 61.742,82.831 62.285 M90.456 68.066 C 92.047 69.029,93.404 69.907,93.473 70.018 C 93.591 70.210,88.523 74.349,88.162 74.356 C 88.067 74.357,87.308 72.311,86.475 69.808 C 85.641 67.304,84.863 65.037,84.745 64.770 C 84.589 64.413,84.938 64.555,86.048 65.299 C 86.882 65.858,88.866 67.104,90.456 68.066 M70.652 72.553 L 69.652 73.577 70.147 74.151 C 71.738 75.999,84.440 89.487,84.589 89.487 C 84.687 89.487,85.191 89.054,85.708 88.524 L 86.649 87.561 80.102 80.511 C 76.501 76.634,73.127 73.027,72.603 72.496 L 71.651 71.530 70.652 72.553 M329.112 74.495 L 328.112 75.334 330.610 77.982 L 333.107 80.629 330.720 82.948 C 329.407 84.223,326.294 87.240,323.802 89.651 L 319.272 94.036 320.341 95.078 L 321.410 96.121 328.317 89.420 L 335.223 82.719 337.751 85.382 L 340.279 88.046 341.216 87.109 L 342.153 86.172 340.375 84.304 C 339.397 83.277,336.687 80.460,334.354 78.046 L 330.111 73.656 329.112 74.495 M62.950 79.857 L 61.759 81.252 66.414 89.621 C 68.974 94.225,71.022 98.038,70.966 98.094 C 70.909 98.151,66.947 96.477,62.162 94.374 L 53.462 90.550 51.987 92.105 C 51.176 92.960,50.513 93.732,50.513 93.821 C 50.513 93.910,53.079 96.289,56.215 99.107 C 59.351 101.925,62.996 105.205,64.315 106.396 L 66.712 108.560 67.577 107.549 C 68.053 106.993,68.447 106.472,68.452 106.391 C 68.457 106.309,65.462 103.549,61.795 100.256 C 58.128 96.964,55.128 94.243,55.128 94.210 C 55.128 94.178,59.100 95.856,63.955 97.941 L 72.782 101.730 73.605 100.882 C 74.673 99.780,74.884 100.326,69.888 91.274 C 67.538 87.015,65.650 83.496,65.692 83.454 C 65.735 83.411,68.695 86.008,72.271 89.223 L 78.773 95.069 79.667 94.080 C 80.158 93.536,80.521 92.992,80.472 92.871 C 80.326 92.503,64.651 78.462,64.387 78.462 C 64.253 78.462,63.606 79.089,62.950 79.857 M341.571 95.175 C 338.991 103.596,339.795 102.195,335.563 105.633 L 332.024 108.508 332.904 109.575 C 333.988 110.888,333.568 111.050,337.697 107.725 L 341.162 104.934 348.594 104.374 C 352.681 104.065,356.108 103.792,356.208 103.765 C 356.308 103.739,355.936 103.135,355.380 102.423 L 354.369 101.127 352.248 101.322 C 351.082 101.429,348.417 101.705,346.325 101.934 C 344.234 102.164,342.484 102.313,342.436 102.265 C 342.389 102.218,343.148 99.761,344.124 96.804 C 346.213 90.475,346.168 90.961,344.802 89.406 L 343.718 88.171 341.571 95.175 M218.323 101.909 C 235.592 104.627,249.967 113.754,259.130 127.821 C 260.509 129.936,263.590 135.742,263.590 136.223 C 263.590 136.336,262.726 135.398,261.670 134.140 C 243.829 112.876,210.452 109.552,187.349 126.738 L 184.569 128.806 179.105 128.247 C 176.100 127.939,170.803 127.488,167.333 127.245 C 163.338 126.965,161.026 126.703,161.026 126.531 C 161.026 126.042,165.381 120.759,167.674 118.466 C 180.586 105.554,200.375 99.085,218.323 101.909 M45.218 122.836 C 44.774 122.969,44.059 123.479,43.628 123.969 C 40.925 127.048,44.350 131.623,48.046 129.869 C 52.248 127.876,49.684 121.499,45.218 122.836 M351.143 125.862 C 348.740 127.327,348.719 130.865,351.104 132.319 C 353.524 133.794,356.922 131.916,356.922 129.103 C 356.922 126.316,353.524 124.410,351.143 125.862 M164.231 130.769 C 213.524 132.560,267.380 144.604,281.667 157.032 L 282.436 157.701 280.897 157.031 C 259.305 147.629,216.785 139.853,181.258 138.809 L 175.465 138.639 173.971 141.050 C 160.988 162.004,164.399 187.747,182.459 205.100 L 185.692 208.207 184.048 207.469 C 168.515 200.500,156.504 185.690,152.688 168.802 C 151.946 165.518,152.661 166.045,147.530 164.997 C 120.754 159.528,105.653 151.877,104.925 143.413 C 104.176 134.693,128.644 129.476,164.231 130.769 M150.897 139.413 C 140.844 140.356,131.446 142.942,128.421 145.598 C 124.204 149.301,128.173 155.913,137.084 160.030 C 140.250 161.492,150.474 164.872,151.733 164.872 C 151.871 164.872,151.875 164.272,151.742 163.397 C 150.852 157.521,151.942 146.528,153.991 140.721 C 154.194 140.148,154.359 139.578,154.359 139.455 C 154.359 139.236,152.963 139.219,150.897 139.413 M268.077 161.007 C 289.200 164.119,313.411 174.575,335.969 190.326 C 340.435 193.444,341.054 193.998,338.807 192.868 C 316.280 181.540,285.548 176.135,261.316 179.242 C 236.324 182.446,212.595 194.646,195.855 212.897 C 193.306 215.677,193.327 215.703,194.759 211.523 C 205.594 179.888,223.912 163.134,250.641 160.413 C 253.520 160.120,264.626 160.498,268.077 161.007 M280.641 190.007 C 296.059 190.760,311.320 193.029,326.410 196.811 C 332.063 198.228,340.184 200.627,337.564 200.107 C 302.498 193.141,249.356 199.548,197.252 217.024 L 193.094 218.419 190.585 217.317 C 166.033 206.529,126.228 200.419,80.336 200.393 C 71.707 200.389,64.841 200.313,65.080 200.225 C 65.973 199.895,76.472 198.193,81.410 197.578 C 125.121 192.130,164.113 198.078,189.586 214.078 C 193.534 216.558,192.567 216.595,195.841 213.841 C 216.302 196.627,245.893 188.310,280.641 190.007 M343.462 207.262 C 339.401 207.681,263.480 215.940,228.548 219.764 L 192.865 223.671 162.010 220.291 C 138.381 217.703,72.809 210.558,56.314 208.774 L 54.296 208.556 54.468 211.009 C 58.950 274.739,106.516 329.317,169.103 342.544 C 255.969 360.903,338.237 299.632,345.404 211.241 C 345.773 206.684,345.931 207.008,343.462 207.262 M98.209 238.526 C 98.093 238.984,97.927 239.676,97.841 240.064 C 97.691 240.730,97.603 240.769,96.260 240.769 C 95.026 240.769,94.855 240.710,94.967 240.321 C 95.039 240.074,95.224 239.381,95.379 238.782 L 95.661 237.692 97.040 237.692 L 98.420 237.692 98.209 238.526 M120.316 238.094 C 120.396 238.174,120.369 238.607,120.256 239.056 C 120.143 239.505,119.979 240.189,119.892 240.577 C 119.746 241.227,119.637 241.282,118.499 241.282 C 117.003 241.282,116.918 241.211,117.180 240.175 C 117.293 239.726,117.457 239.042,117.544 238.654 C 117.696 237.976,119.778 237.556,120.316 238.094 M237.691 240.833 C 237.690 241.010,237.459 242.113,237.178 243.285 C 236.469 246.242,236.445 246.154,237.954 246.154 C 239.227 246.154,239.239 246.161,239.072 246.859 C 238.729 248.292,238.530 248.460,237.246 248.395 L 236.045 248.333 234.989 252.949 C 233.497 259.467,233.543 259.148,234.027 259.631 C 234.339 259.943,234.703 260.010,235.441 259.892 L 236.435 259.734 236.266 260.700 C 235.921 262.669,233.200 262.957,231.346 261.220 C 230.545 260.469,230.594 259.906,232.015 253.654 L 233.253 248.205 232.156 248.205 L 231.058 248.205 231.369 247.132 C 231.665 246.109,231.727 246.058,232.699 246.042 L 233.718 246.026 234.180 244.103 C 234.666 242.079,237.699 239.254,237.691 240.833 M273.065 241.218 C 273.058 241.465,271.985 246.340,270.680 252.051 L 268.309 262.436 266.953 262.514 C 265.645 262.590,265.603 262.572,265.768 262.001 C 265.861 261.676,266.001 261.187,266.078 260.914 C 266.186 260.534,265.970 260.630,265.163 261.321 C 260.843 265.019,255.721 261.661,256.244 255.476 C 256.856 248.244,263.490 243.686,267.527 247.723 C 268.081 248.277,268.561 248.699,268.594 248.660 C 268.627 248.621,269.019 246.974,269.464 245.000 C 269.909 243.026,270.323 241.266,270.385 241.090 C 270.575 240.545,273.080 240.664,273.065 241.218 M313.688 244.382 C 313.352 245.804,313.077 247.073,313.077 247.202 C 313.077 247.331,313.654 247.436,314.359 247.436 C 315.767 247.436,315.751 247.415,315.375 248.769 C 315.118 249.692,315.076 249.719,313.776 249.795 L 312.441 249.872 311.355 254.615 C 309.860 261.144,309.925 261.650,312.201 261.215 C 312.906 261.080,312.915 262.914,312.212 263.408 C 310.837 264.376,307.179 262.812,307.179 261.256 C 307.179 260.787,309.288 251.088,309.641 249.936 C 309.756 249.560,309.610 249.487,308.735 249.487 C 307.622 249.487,307.607 249.465,307.853 248.237 C 308.002 247.491,308.088 247.436,309.100 247.436 L 310.187 247.436 310.670 245.462 C 311.131 243.582,312.734 241.891,314.137 241.805 C 314.226 241.799,314.024 242.959,313.688 244.382 M84.183 243.351 C 84.721 243.501,85.616 244.077,86.170 244.632 C 87.405 245.866,87.353 245.867,87.564 244.615 L 87.737 243.590 88.997 243.590 C 89.690 243.590,90.256 243.707,90.256 243.851 C 90.256 244.362,86.910 258.878,86.398 260.588 C 85.098 264.926,80.043 266.985,75.808 264.901 C 73.644 263.836,72.451 260.221,74.391 260.609 C 74.832 260.697,75.466 260.769,75.801 260.769 C 76.231 260.769,76.410 260.914,76.410 261.261 C 76.410 262.587,77.466 263.333,79.341 263.333 C 81.911 263.333,83.102 262.313,83.835 259.486 C 83.999 258.852,84.193 258.127,84.266 257.876 C 84.368 257.526,84.118 257.616,83.204 258.260 C 80.528 260.147,76.639 259.194,75.142 256.287 C 72.013 250.206,78.003 241.635,84.183 243.351 M96.935 243.782 C 96.942 243.888,96.163 247.465,95.204 251.730 L 93.462 259.486 92.115 259.487 C 91.300 259.487,90.769 259.375,90.769 259.203 C 90.769 258.883,94.039 244.411,94.224 243.910 C 94.352 243.565,96.914 243.444,96.935 243.782 M101.956 243.946 C 101.996 243.981,103.242 253.393,103.485 255.494 L 103.660 257.014 104.166 256.007 C 104.445 255.453,106.113 252.490,107.874 249.423 L 111.076 243.846 112.461 243.846 C 114.255 243.846,114.517 243.180,109.270 251.959 L 104.695 259.615 103.117 259.692 C 102.249 259.734,101.538 259.734,101.537 259.692 C 101.537 259.650,101.018 256.102,100.383 251.808 C 99.749 247.514,99.231 243.914,99.231 243.807 C 99.231 243.662,101.776 243.792,101.956 243.946 M133.314 244.562 C 135.376 246.102,135.417 247.319,133.655 254.872 L 132.430 260.128 131.087 260.206 C 129.444 260.301,129.445 260.951,131.076 253.688 C 132.576 247.006,132.556 246.624,130.684 246.273 C 127.138 245.608,125.142 248.126,123.461 255.385 L 122.421 259.872 121.082 259.949 C 119.425 260.045,119.389 260.866,121.429 251.908 C 123.392 243.290,123.072 244.103,124.502 244.103 C 125.738 244.103,125.766 244.152,125.409 245.691 L 125.189 246.638 126.561 245.602 C 128.888 243.845,131.760 243.402,133.314 244.562 M118.852 245.064 C 118.760 245.593,117.970 249.141,117.097 252.949 L 115.510 259.872 114.165 259.949 C 113.426 259.992,112.815 259.934,112.808 259.821 C 112.802 259.708,113.581 256.125,114.539 251.859 L 116.282 244.104 117.651 244.103 L 119.019 244.103 118.852 245.064 M146.765 244.382 C 147.317 244.535,148.302 245.165,148.978 245.798 L 150.196 246.937 150.370 245.776 L 150.544 244.615 151.811 244.615 C 153.380 244.615,153.432 243.750,151.298 253.102 C 148.409 265.758,147.887 266.538,142.308 266.538 C 138.314 266.538,136.414 265.296,136.411 262.685 L 136.410 261.652 137.741 261.788 C 138.982 261.914,139.086 261.979,139.284 262.745 C 139.590 263.931,140.356 264.359,142.172 264.359 C 144.936 264.358,145.922 263.475,146.754 260.256 C 147.200 258.533,147.207 258.541,146.021 259.346 C 142.768 261.553,138.691 260.124,137.581 256.387 C 135.697 250.042,141.207 242.839,146.765 244.382 M173.363 244.876 C 181.018 247.002,178.185 260.350,169.897 261.206 C 165.110 261.700,162.030 258.143,162.805 253.017 C 163.687 247.187,168.453 243.512,173.363 244.876 M185.386 245.321 C 185.387 245.426,184.787 248.186,184.053 251.453 C 182.408 258.780,182.588 259.593,185.750 259.119 C 188.749 258.669,190.172 256.427,191.660 249.808 L 192.655 245.385 194.020 245.385 C 194.947 245.385,195.381 245.487,195.372 245.705 C 195.366 245.881,194.581 249.429,193.630 253.590 L 191.899 261.154 190.532 261.232 C 189.408 261.297,189.191 261.243,189.311 260.930 C 189.391 260.721,189.536 260.108,189.632 259.569 L 189.807 258.590 188.942 259.395 C 185.546 262.558,180.669 261.974,180.079 258.334 C 179.981 257.730,180.382 255.397,181.293 251.280 L 182.654 245.128 184.019 245.128 C 184.770 245.128,185.385 245.215,185.386 245.321 M207.324 245.503 L 208.220 245.878 207.805 246.849 C 207.576 247.383,207.331 247.963,207.259 248.136 C 207.161 248.373,206.997 248.382,206.604 248.172 C 203.629 246.579,201.299 249.895,199.372 258.462 L 198.709 261.410 197.431 261.321 C 196.677 261.269,196.160 261.111,196.168 260.937 C 196.176 260.774,196.964 257.237,197.919 253.077 L 199.655 245.513 200.885 245.433 L 202.114 245.354 201.941 246.331 C 201.846 246.868,201.700 247.538,201.619 247.821 C 201.525 248.142,201.949 247.848,202.755 247.033 C 204.483 245.285,205.771 244.854,207.324 245.503 M80.621 245.868 C 77.038 248.053,75.983 254.991,78.997 256.550 C 83.837 259.053,88.948 249.015,84.385 245.967 C 83.306 245.246,81.710 245.204,80.621 245.868 M225.855 245.947 C 227.606 246.481,229.231 248.490,229.231 250.120 C 229.231 251.360,226.863 251.072,226.352 249.770 C 225.409 247.369,221.203 246.923,220.203 249.117 C 219.713 250.194,220.298 250.782,223.458 252.384 C 227.427 254.397,228.569 255.902,227.930 258.276 C 226.371 264.064,215.169 263.048,215.134 257.115 L 215.128 256.154 216.505 256.154 L 217.881 256.154 218.021 257.199 C 218.468 260.529,224.806 261.099,225.081 257.834 C 225.191 256.531,224.691 256.032,222.051 254.809 C 218.514 253.170,217.436 252.083,217.436 250.158 C 217.436 246.586,221.419 244.594,225.855 245.947 M244.872 246.252 C 244.872 246.306,244.295 248.893,243.590 252.001 C 242.007 258.976,241.994 259.299,243.252 259.962 C 244.107 260.411,245.124 260.313,246.568 259.640 C 249.092 258.465,249.698 257.156,251.536 248.910 L 252.093 246.410 253.510 246.410 C 254.851 246.410,254.920 246.441,254.785 246.987 C 254.706 247.304,253.938 250.679,253.078 254.487 C 252.219 258.295,251.455 261.612,251.381 261.859 C 251.119 262.740,248.618 262.488,248.834 261.603 C 249.374 259.393,249.425 259.521,248.370 260.447 C 245.402 263.051,241.506 263.179,240.008 260.723 C 239.242 259.467,239.345 258.294,240.769 252.051 C 241.474 248.960,242.051 246.368,242.051 246.292 C 242.051 246.216,242.686 246.154,243.462 246.154 C 244.237 246.154,244.872 246.198,244.872 246.252 M143.539 246.933 C 140.425 248.578,138.983 254.396,141.040 257.012 C 143.742 260.446,149.370 255.547,148.923 250.151 C 148.673 247.144,146.078 245.593,143.539 246.933 M284.487 247.171 C 286.757 248.149,287.952 250.273,287.945 253.315 C 287.939 255.771,288.326 255.622,281.783 255.700 L 276.026 255.769 276.089 256.998 C 276.316 261.403,281.240 262.204,283.718 258.239 C 284.211 257.451,284.281 257.424,285.508 257.572 C 287.132 257.767,287.106 257.720,286.317 259.066 C 282.024 266.391,271.922 263.182,273.289 254.927 C 274.330 248.645,279.537 245.038,284.487 247.171 M169.359 247.221 C 164.319 249.996,164.191 258.969,169.192 258.973 C 174.079 258.978,177.281 249.879,173.257 247.426 C 172.340 246.866,170.206 246.754,169.359 247.221 M302.815 247.372 C 304.091 248.013,304.873 249.299,304.866 250.743 C 304.859 252.024,302.471 262.760,302.113 263.118 C 301.705 263.525,299.461 263.058,299.592 262.593 C 300.170 260.550,302.051 251.628,302.051 250.927 C 302.051 247.781,296.800 249.045,294.970 252.632 C 294.503 253.547,292.308 262.048,292.308 262.941 C 292.308 263.016,291.673 263.077,290.897 263.077 C 290.122 263.077,289.487 263.030,289.487 262.973 C 289.487 262.808,292.825 248.125,292.975 247.628 C 293.081 247.279,293.395 247.179,294.394 247.179 C 295.494 247.179,295.657 247.243,295.542 247.628 C 295.469 247.875,295.327 248.418,295.228 248.834 L 295.047 249.591 296.339 248.642 C 298.748 246.874,300.960 246.440,302.815 247.372 M326.795 248.072 C 328.284 248.806,329.215 250.032,329.415 251.523 L 329.555 252.564 328.111 252.564 C 326.779 252.564,326.667 252.519,326.667 251.980 C 326.667 249.857,322.865 248.620,321.045 250.151 C 319.451 251.493,320.058 252.349,324.002 254.316 C 327.593 256.108,328.417 257.173,328.137 259.660 C 327.478 265.505,315.924 265.215,315.437 259.340 L 315.321 257.949 316.379 257.910 C 316.960 257.889,317.580 257.860,317.756 257.846 C 317.945 257.831,318.135 258.259,318.219 258.888 C 318.683 262.364,325.385 262.846,325.385 259.404 C 325.385 258.274,324.737 257.700,322.029 256.431 C 318.567 254.809,317.692 253.874,317.692 251.795 C 317.692 248.041,322.633 246.020,326.795 248.072 M262.996 248.830 C 259.412 250.119,257.597 257.595,260.314 259.880 C 263.155 262.272,267.416 258.172,267.517 252.949 C 267.582 249.599,265.679 247.865,262.996 248.830 M279.870 249.196 C 278.430 249.850,276.158 252.703,276.696 253.181 C 276.750 253.229,278.742 253.325,281.121 253.394 L 285.448 253.520 285.293 252.212 C 284.955 249.357,282.509 247.997,279.870 249.196 M155.641 269.437 C 155.641 269.671,154.152 276.286,153.934 277.020 C 153.825 277.385,154.088 277.275,155.017 276.566 C 158.780 273.692,163.329 274.895,163.332 278.764 C 163.333 279.721,162.409 284.248,160.895 290.705 C 160.775 291.218,160.601 291.282,159.337 291.282 C 158.102 291.282,157.932 291.223,158.049 290.833 C 158.552 289.157,160.512 279.873,160.509 279.184 C 160.502 277.649,159.515 277.046,157.595 277.405 C 154.366 278.008,153.360 279.592,151.799 286.538 C 151.355 288.513,150.934 290.330,150.863 290.577 C 150.761 290.935,150.447 291.026,149.314 291.026 C 148.287 291.026,147.926 290.937,148.009 290.705 C 148.073 290.529,149.201 285.625,150.518 279.808 L 152.911 269.231 154.276 269.231 C 155.027 269.231,155.641 269.323,155.641 269.437 M147.179 269.734 C 147.179 269.869,146.949 270.970,146.667 272.179 C 145.957 275.221,145.934 275.128,147.409 275.128 L 148.664 275.128 148.468 275.995 C 148.162 277.354,148.003 277.480,146.710 277.390 L 145.525 277.308 144.470 281.923 C 142.988 288.407,143.029 288.120,143.516 288.607 C 143.821 288.913,144.215 288.992,144.942 288.895 C 145.874 288.770,145.935 288.800,145.797 289.316 C 145.715 289.622,145.646 290.008,145.645 290.174 C 145.629 291.548,142.321 291.681,140.901 290.366 C 140.001 289.531,140.061 288.756,141.507 282.500 L 142.737 277.179 141.652 277.179 L 140.567 277.179 140.824 276.167 C 141.066 275.215,141.144 275.150,142.132 275.077 L 143.182 275.000 143.657 273.077 C 144.141 271.119,147.179 268.235,147.179 269.734 M247.179 270.883 C 247.179 271.245,242.316 292.344,242.183 292.559 C 242.017 292.827,239.487 292.937,239.487 292.676 C 239.487 292.597,240.583 287.694,241.923 281.782 C 243.263 275.869,244.359 270.972,244.359 270.900 C 244.359 270.828,244.994 270.769,245.769 270.769 C 246.545 270.769,247.179 270.820,247.179 270.883 M264.103 271.300 C 264.103 271.565,259.590 291.713,259.326 292.628 C 259.225 292.977,258.916 293.077,257.931 293.077 C 256.557 293.077,256.556 293.076,256.905 291.857 C 257.198 290.836,257.238 290.834,255.869 291.918 C 251.069 295.724,245.992 291.182,247.411 284.352 C 248.755 277.886,255.118 274.396,258.578 278.226 C 259.154 278.864,259.541 279.122,259.612 278.917 C 259.674 278.737,260.077 277.032,260.508 275.128 C 260.938 273.224,261.343 271.522,261.406 271.346 C 261.551 270.946,264.103 270.902,264.103 271.300 M177.051 275.872 C 179.565 276.982,180.901 280.049,180.343 283.427 L 180.180 284.418 174.321 284.317 L 168.462 284.216 168.462 285.321 C 168.462 289.735,173.349 291.001,175.979 287.269 C 176.792 286.116,177.118 286.001,178.676 286.312 L 179.467 286.470 178.954 287.477 C 176.034 293.199,167.720 293.237,166.004 287.535 C 163.857 280.401,170.774 273.098,177.051 275.872 M195.048 279.615 C 195.216 281.590,195.429 284.342,195.523 285.731 L 195.693 288.257 196.531 286.244 C 196.991 285.137,198.242 282.413,199.310 280.192 L 201.251 276.154 202.772 276.154 L 204.293 276.154 204.451 278.910 C 204.538 280.426,204.684 283.141,204.776 284.942 L 204.942 288.218 206.150 285.583 C 206.814 284.134,208.126 281.420,209.065 279.551 L 210.773 276.154 212.053 276.154 C 213.737 276.154,213.907 275.623,209.423 284.397 L 205.513 292.049 204.073 292.050 L 202.634 292.051 202.468 288.782 C 202.376 286.984,202.231 284.277,202.144 282.766 L 201.987 280.020 200.346 283.536 C 199.443 285.469,198.160 288.147,197.493 289.487 L 196.282 291.923 194.872 291.833 C 194.096 291.783,193.448 291.726,193.432 291.705 C 193.416 291.684,193.152 288.667,192.845 285.000 C 192.537 281.333,192.217 277.779,192.134 277.101 L 191.981 275.868 193.362 275.947 L 194.744 276.026 195.048 279.615 M224.122 276.447 C 230.398 278.327,229.219 289.546,222.476 292.108 C 217.859 293.863,213.509 291.388,213.141 286.797 C 212.592 279.960,218.201 274.672,224.122 276.447 M241.348 276.887 C 241.821 277.360,240.637 279.600,240.056 279.333 C 237.132 277.987,234.783 280.999,233.137 288.205 L 232.170 292.436 230.829 292.513 C 230.091 292.556,229.487 292.552,229.487 292.504 C 229.487 292.427,232.603 278.690,232.949 277.244 C 233.069 276.743,233.252 276.667,234.341 276.667 L 235.595 276.667 235.258 278.114 L 234.922 279.562 235.858 278.512 C 237.605 276.554,240.236 275.775,241.348 276.887 M172.131 277.968 C 170.974 278.541,169.941 279.721,169.342 281.154 L 168.967 282.051 173.330 282.051 L 177.692 282.051 177.691 280.962 C 177.689 278.095,174.904 276.595,172.131 277.968 M219.857 278.675 C 216.328 280.326,214.605 286.782,217.012 289.335 C 220.036 292.541,225.042 288.845,225.316 283.205 C 225.508 279.262,223.019 277.196,219.857 278.675 M253.462 279.454 C 249.882 281.677,248.723 288.759,251.646 290.542 C 254.692 292.400,258.464 288.278,258.461 283.094 C 258.459 279.784,255.914 277.931,253.462 279.454 M69.899 309.165 L 60.786 318.590 62.047 319.856 L 63.308 321.122 67.013 317.292 L 70.718 313.462 73.500 316.167 C 80.136 322.619,83.548 323.398,87.841 319.441 C 92.470 315.174,91.451 311.666,83.317 303.868 L 79.011 299.740 69.899 309.165 M83.140 308.157 C 86.959 312.037,87.289 312.640,86.688 314.644 C 85.844 317.464,82.811 318.955,80.323 317.774 C 79.447 317.358,73.304 311.793,73.110 311.239 C 73.021 310.986,79.170 304.615,79.503 304.615 C 79.586 304.615,81.222 306.209,83.140 308.157 M321.342 304.875 C 315.315 306.130,310.434 313.500,312.768 317.821 C 315.168 322.264,318.262 322.526,325.641 318.910 C 331.458 316.060,333.457 315.973,334.771 318.514 C 337.512 323.815,327.991 330.194,323.077 326.349 L 322.436 325.847 321.349 327.080 L 320.263 328.312 320.916 328.994 C 327.458 335.822,342.034 325.161,337.636 316.764 C 335.248 312.205,331.768 311.930,324.185 315.701 C 319.047 318.256,317.983 318.457,316.551 317.145 C 314.772 315.514,315.038 313.209,317.268 310.930 C 320.368 307.763,322.750 307.293,325.827 309.242 C 326.424 309.619,328.462 308.093,328.462 307.269 C 328.462 305.861,323.927 304.337,321.342 304.875 M93.784 316.731 C 80.850 332.172,79.783 334.628,83.701 339.950 C 88.051 345.858,94.685 346.943,99.273 342.496 C 100.582 341.227,111.038 328.511,111.015 328.215 C 111.002 328.050,108.570 326.154,108.371 326.154 C 108.295 326.154,105.823 329.125,102.877 332.756 C 97.176 339.786,96.195 340.809,94.402 341.603 C 90.980 343.116,85.385 338.993,85.385 334.957 C 85.385 332.799,85.740 332.263,93.679 322.462 L 97.742 317.445 96.904 316.735 C 94.934 315.068,95.176 315.069,93.784 316.731 M295.715 324.111 L 294.378 325.137 302.125 335.421 C 306.386 341.077,310.007 345.757,310.172 345.821 C 310.395 345.907,321.746 337.678,323.168 336.400 C 323.388 336.202,321.836 333.875,321.471 333.856 C 321.364 333.851,319.046 335.519,316.321 337.564 C 313.596 339.609,311.261 341.277,311.132 341.270 C 311.003 341.264,307.840 337.168,304.103 332.169 C 300.365 327.170,297.250 323.081,297.179 323.083 C 297.109 323.084,296.450 323.547,295.715 324.111 M106.302 340.379 C 102.555 346.373,99.460 351.406,99.424 351.563 C 99.236 352.391,110.438 358.790,112.856 359.236 C 118.701 360.314,123.253 353.561,119.961 348.697 L 119.513 348.034 121.103 347.739 C 126.316 346.769,128.014 340.492,124.092 336.686 C 123.272 335.890,117.222 331.908,113.417 329.659 C 113.219 329.542,110.766 333.238,106.302 340.379 M286.282 330.555 C 275.741 332.538,272.753 345.254,280.894 353.485 C 289.831 362.522,304.816 354.391,301.914 342.081 C 300.091 334.345,293.188 329.256,286.282 330.555 M291.947 334.428 C 298.549 337.808,300.926 347.104,296.336 351.588 C 291.016 356.785,283.975 354.294,280.249 345.897 C 277.013 338.603,284.934 330.836,291.947 334.428 M116.734 335.418 C 121.771 338.553,122.821 339.559,122.821 341.253 C 122.821 343.906,120.489 345.812,118.048 345.155 C 116.904 344.847,110.356 340.871,110.439 340.535 C 110.520 340.208,114.386 334.103,114.513 334.103 C 114.572 334.103,115.572 334.694,116.734 335.418 M126.026 352.343 C 122.923 358.706,120.355 363.986,120.318 364.078 C 120.245 364.261,121.593 364.951,129.641 368.853 L 135.052 371.476 135.732 370.089 L 136.413 368.702 130.726 365.887 C 127.598 364.339,124.996 363.030,124.945 362.979 C 124.893 362.927,127.108 358.238,129.868 352.560 C 132.627 346.881,134.853 342.208,134.814 342.174 C 134.602 341.990,132.037 340.770,131.867 340.772 C 131.757 340.773,129.128 345.980,126.026 352.343 M263.273 343.074 C 253.568 344.799,249.589 354.543,254.918 363.531 C 259.346 370.998,268.807 372.246,274.876 366.162 C 283.338 357.682,274.953 340.998,263.273 343.074 M113.231 346.296 C 117.509 349.065,118.467 350.802,117.180 353.461 C 115.515 356.899,113.280 356.831,107.365 353.159 L 103.833 350.967 104.349 350.163 C 104.632 349.721,105.700 348.010,106.722 346.362 L 108.580 343.365 109.482 343.909 C 109.979 344.209,111.665 345.283,113.231 346.296 M268.336 346.898 C 274.516 349.632,276.901 360.307,272.267 364.494 C 266.412 369.783,258.593 366.208,256.272 357.179 C 254.407 349.925,261.505 343.876,268.336 346.898 M148.345 349.788 C 146.995 353.163,139.487 372.862,139.487 373.030 C 139.487 373.221,142.579 374.442,142.699 374.299 C 142.862 374.106,152.063 349.927,151.999 349.862 C 151.861 349.725,149.216 348.718,148.993 348.718 C 148.872 348.718,148.581 349.200,148.345 349.788 M245.897 350.447 C 245.122 350.669,244.446 350.882,244.396 350.922 C 244.346 350.961,244.964 353.262,245.769 356.035 C 246.573 358.807,247.133 361.162,247.013 361.267 C 246.781 361.471,234.931 364.872,234.455 364.872 C 234.225 364.872,233.249 361.772,231.496 355.470 L 231.270 354.657 229.801 355.060 C 228.994 355.282,228.237 355.548,228.120 355.650 C 227.951 355.798,231.053 367.045,234.635 379.270 L 235.135 380.976 236.698 380.503 C 237.557 380.243,238.313 379.977,238.378 379.913 C 238.442 379.848,237.731 377.175,236.797 373.972 C 235.863 370.769,235.134 368.118,235.178 368.079 C 235.350 367.927,248.050 364.375,248.131 364.456 C 248.179 364.504,248.952 367.103,249.848 370.233 C 250.744 373.362,251.534 375.979,251.604 376.048 C 251.826 376.270,254.872 375.311,254.862 375.022 C 254.837 374.308,247.733 350.144,247.534 350.097 C 247.410 350.068,246.673 350.225,245.897 350.447 M159.755 353.613 C 153.420 354.855,148.913 363.062,150.242 370.938 C 151.926 380.923,165.496 384.037,171.015 375.705 C 172.018 374.191,172.043 374.276,170.321 373.341 L 168.846 372.540 168.473 373.129 C 163.725 380.624,153.590 377.616,153.590 368.712 C 153.590 363.350,156.439 358.004,159.932 356.814 C 164.675 355.198,169.608 357.883,170.376 362.500 L 170.558 363.590 172.346 363.590 L 174.134 363.590 173.957 362.372 C 173.049 356.136,166.738 352.245,159.755 353.613 M214.930 357.280 C 206.313 359.457,203.109 369.085,207.967 378.200 C 212.616 386.924,225.838 385.976,228.965 376.695 C 229.763 374.326,229.689 373.590,228.654 373.587 C 228.196 373.585,227.388 373.513,226.859 373.425 C 225.921 373.270,225.897 373.286,225.897 374.059 C 225.897 381.676,214.466 383.622,211.039 376.589 C 207.919 370.186,209.110 363.275,213.725 361.003 C 217.937 358.930,221.372 359.875,224.124 363.865 L 224.530 364.453 226.047 363.850 C 226.881 363.518,227.607 363.214,227.659 363.174 C 227.866 363.014,226.389 360.809,225.380 359.769 C 223.059 357.378,218.675 356.334,214.930 357.280 M190.641 358.310 C 186.907 359.235,184.796 361.698,184.796 365.128 C 184.796 369.020,186.817 370.728,193.781 372.725 C 199.591 374.391,200.641 375.145,200.641 377.645 C 200.641 383.835,188.302 383.312,186.903 377.062 L 186.572 375.584 185.430 375.741 C 184.802 375.827,184.058 375.897,183.777 375.897 C 183.310 375.897,183.282 376.011,183.445 377.244 C 184.844 387.812,204.085 387.887,204.100 377.325 C 204.106 373.117,202.089 371.393,194.673 369.265 C 188.910 367.612,188.036 366.975,188.265 364.599 C 188.762 359.425,198.933 359.874,200.251 365.128 L 200.540 366.282 202.219 366.195 L 203.897 366.108 203.720 364.924 C 202.950 359.792,196.936 356.750,190.641 358.310 " stroke="none" fill="#ffffff" fill-rule="evenodd"></path></g></svg>